<svg width="49" height="60" viewBox="0 0 49 60" fill="none" xmlns="http://www.w3.org/2000/svg">
<g clip-path="url(#clip0_1_658)">
<path fill-rule="evenodd" clip-rule="evenodd" d="M35.664 24.4827C34.3416 23.1603 32.5146 22.3424 30.4965 22.3424C28.4783 22.3424 26.6513 23.1603 25.329 24.4827C24.0066 25.8051 23.1887 27.632 23.1887 29.6502C23.1887 31.6684 24.0066 33.4953 25.329 34.8177C26.6513 36.1401 28.4783 36.9579 30.4965 36.9579C32.5146 36.9579 34.3416 36.1401 35.664 34.8177C36.9864 33.4953 37.8042 31.6684 37.8042 29.6502C37.8042 27.632 36.9864 25.8051 35.664 24.4827ZM32.9378 18.8757C33.9754 19.1117 34.96 19.4901 35.8674 19.9988C36.1888 20.1778 36.5876 20.1493 36.8806 19.9214L38.0199 19.0304C38.3861 18.7455 38.9069 18.774 39.2365 19.1036L41.0471 20.9143C41.3767 21.2438 41.4092 21.7647 41.1204 22.1309L40.2293 23.2701C40.0014 23.559 39.9689 23.9578 40.152 24.2833C40.5629 25.0198 40.8884 25.8051 41.1244 26.6311C41.2261 26.9851 41.5272 27.2455 41.8934 27.2902L43.3298 27.4652C43.7896 27.5221 44.1395 27.9128 44.1395 28.3766V30.94C44.1395 31.4039 43.7936 31.7945 43.3298 31.8515L41.8934 32.0264C41.5272 32.0712 41.2261 32.3316 41.1244 32.6856C40.8884 33.5116 40.5629 34.2969 40.152 35.0333C39.9729 35.3548 40.0014 35.7535 40.2293 36.0465L41.1204 37.1858C41.4052 37.552 41.3767 38.0728 41.0471 38.4024L39.2365 40.213C38.9069 40.5426 38.3861 40.5752 38.0199 40.2863L36.8806 39.3952C36.5917 39.1673 36.1929 39.1348 35.8674 39.3179C35.135 39.7288 34.3456 40.0544 33.5196 40.2904C33.1657 40.3921 32.9052 40.6932 32.8605 41.0594L32.6855 42.4957C32.6286 42.9555 32.2379 43.3054 31.7741 43.3054H29.2107C28.7468 43.3054 28.3562 42.9596 28.2993 42.4957L28.1243 41.0594C28.0795 40.6932 27.8191 40.388 27.4651 40.2904C26.6391 40.0544 25.8538 39.7288 25.1174 39.3179C24.7959 39.1389 24.3972 39.1673 24.1042 39.3952L22.9649 40.2863C22.5987 40.5711 22.0779 40.5426 21.7483 40.213L19.9377 38.4024C19.6081 38.0728 19.5755 37.552 19.8644 37.1858L20.7555 36.0465C20.9834 35.7576 21.0159 35.3589 20.8328 35.0333C20.4219 34.2969 20.0963 33.5116 19.8604 32.6856C19.7586 32.3316 19.4575 32.0712 19.0913 32.0264L17.655 31.8515C17.1952 31.7945 16.8494 31.4039 16.8494 30.94V28.3766C16.8494 27.9128 17.1952 27.5221 17.655 27.4652L19.0913 27.2902C19.4575 27.2455 19.7586 26.9851 19.8604 26.6311C20.0963 25.8051 20.4219 25.0198 20.8328 24.2833C21.0119 23.9619 20.9834 23.5631 20.7555 23.2701L19.8644 22.1309C19.5796 21.7647 19.6081 21.2438 19.9377 20.9143L21.7483 19.1036C22.0779 18.774 22.5987 18.7415 22.9649 19.0304L24.1042 19.9214C24.3931 20.1493 24.7919 20.1819 25.1174 19.9988C25.8498 19.5878 26.6391 19.2623 27.4651 19.0263C27.8191 18.9246 28.0795 18.6235 28.1243 18.2573L28.2993 16.8209C28.3562 16.3612 28.7468 16.0112 29.2107 16.0112H31.7741C32.2379 16.0112 32.6286 16.3571 32.6855 16.8209L32.9337 18.8798L32.9378 18.8757Z" fill="white"/>
<path d="M30.4964 33.1574C32.4133 33.1574 33.9672 31.6034 33.9672 29.6866C33.9672 27.7697 32.4133 26.2158 30.4964 26.2158C28.5796 26.2158 27.0256 27.7697 27.0256 29.6866C27.0256 31.6034 28.5796 33.1574 30.4964 33.1574Z" fill="white"/>
<path fill-rule="evenodd" clip-rule="evenodd" d="M13.8749 12.1499C12.9553 11.2303 11.6858 10.6648 10.2861 10.6648C8.88642 10.6648 7.61692 11.2344 6.69735 12.1499C5.77778 13.0695 5.2122 14.339 5.2122 15.7387C5.2122 17.1384 5.78185 18.4079 6.69735 19.3274C7.61692 20.247 8.88642 20.8126 10.2861 20.8126C11.6858 20.8126 12.9553 20.2429 13.8749 19.3274C14.7945 18.4079 15.36 17.1384 15.36 15.7387C15.36 14.339 14.7904 13.0695 13.8749 12.1499ZM11.9829 8.25597C12.703 8.41872 13.3866 8.6832 14.0173 9.03313C14.2411 9.15926 14.5178 9.13892 14.7212 8.98023L15.5106 8.36176C15.7629 8.16238 16.1291 8.18273 16.3569 8.41059L17.6142 9.66788C17.8421 9.89573 17.8624 10.2579 17.663 10.5142L17.0446 11.3036C16.8859 11.507 16.8655 11.7837 16.9917 12.0075C17.2765 12.5161 17.5043 13.0654 17.6671 13.6351C17.7363 13.8833 17.9479 14.0623 18.2042 14.0908L19.2011 14.2128C19.5225 14.2535 19.7626 14.5221 19.7626 14.8476V16.6257C19.7626 16.9471 19.5225 17.2198 19.2011 17.2604L18.2042 17.3825C17.9519 17.4151 17.7403 17.5941 17.6671 17.8382C17.5043 18.4119 17.2765 18.9572 16.9917 19.4658C16.8655 19.6896 16.8859 19.9663 17.0446 20.1697L17.663 20.9591C17.8624 21.2113 17.838 21.5775 17.6142 21.8054L16.3569 23.0627C16.1291 23.2906 15.7669 23.3109 15.5106 23.1115L14.7212 22.493C14.5178 22.3344 14.2411 22.314 14.0173 22.4402C13.5087 22.725 12.9594 22.9528 12.3897 23.1156C12.1415 23.1848 11.9625 23.3963 11.934 23.6486L11.812 24.6455C11.7713 24.9669 11.5027 25.207 11.1772 25.207H9.3991C9.07766 25.207 8.80504 24.9669 8.76435 24.6455L8.64228 23.6486C8.60973 23.3963 8.4307 23.1848 8.18657 23.1156C7.61285 22.9528 7.06762 22.725 6.55901 22.4402C6.33522 22.314 6.05853 22.3344 5.85509 22.493L5.06572 23.1115C4.81345 23.3109 4.44725 23.2906 4.21939 23.0627L2.9621 21.8054C2.73424 21.5775 2.7139 21.2154 2.91327 20.9591L3.53175 20.1697C3.69043 19.9663 3.71078 19.6896 3.58464 19.4658C3.29982 18.9572 3.07196 18.4079 2.9092 17.8382C2.84003 17.59 2.62845 17.411 2.37211 17.3825L1.37523 17.2604C1.05379 17.2238 0.813721 16.9512 0.813721 16.6257V14.8476C0.813721 14.5261 1.05379 14.2535 1.37523 14.2128L2.37211 14.0908C2.62438 14.0582 2.83596 13.8792 2.9092 13.6351C3.07196 13.0613 3.29982 12.5161 3.58464 12.0034C3.71078 11.7796 3.69043 11.503 3.53175 11.2995L2.91327 10.5101C2.7139 10.2579 2.73831 9.89167 2.9621 9.66381L4.21939 8.40652C4.44725 8.17866 4.80938 8.15831 5.06572 8.35769L5.85509 8.97616C6.05853 9.13485 6.33522 9.15519 6.55901 9.02906C7.06762 8.74424 7.61692 8.51638 8.18657 8.35362C8.43477 8.28445 8.6138 8.07287 8.64228 7.8206L8.76435 6.82372C8.80504 6.50227 9.07359 6.26221 9.3991 6.26221H11.1772C11.4987 6.26221 11.7713 6.50227 11.812 6.82372L11.9869 8.2519L11.9829 8.25597Z" fill="white"/>
<path fill-rule="evenodd" clip-rule="evenodd" d="M10.2861 13.3545C8.95562 13.3545 7.87329 14.4328 7.87329 15.7673C7.87329 17.1019 8.95155 18.1802 10.2861 18.1802C11.6207 18.1802 12.699 17.1019 12.699 15.7673C12.699 14.4368 11.6207 13.3545 10.2861 13.3545Z" fill="white"/>
<path fill-rule="evenodd" clip-rule="evenodd" d="M28.9055 4.47563C28.2056 3.77578 27.2413 3.34447 26.1752 3.34447C25.1092 3.34447 24.1448 3.77578 23.445 4.47563C22.7451 5.17548 22.3138 6.13981 22.3138 7.20586C22.3138 8.27191 22.7451 9.23624 23.445 9.93609C24.1448 10.6359 25.1092 11.0672 26.1752 11.0672C27.2413 11.0672 28.2056 10.6359 28.9055 9.93609C29.6053 9.23624 30.0366 8.27191 30.0366 7.20586C30.0366 6.13981 29.6053 5.17548 28.9055 4.47563ZM27.4651 1.51347C28.0144 1.6396 28.5352 1.83898 29.0112 2.10753C29.1821 2.20111 29.3937 2.18484 29.5443 2.06684L30.1465 1.59485C30.3418 1.4443 30.6144 1.46057 30.7894 1.63147L31.7455 2.58766C31.9205 2.76262 31.9368 3.03524 31.7862 3.23054L31.3142 3.83274C31.1922 3.98736 31.18 4.19894 31.2736 4.36577C31.4892 4.75231 31.6642 5.16734 31.7862 5.60678C31.8391 5.79395 31.9978 5.93229 32.1931 5.95671L32.9499 6.05029C33.1941 6.07877 33.3772 6.28629 33.3772 6.53042V7.88536C33.3772 8.1295 33.1941 8.33701 32.9499 8.36549L32.1931 8.45908C31.9978 8.48349 31.8391 8.62184 31.7862 8.809C31.6642 9.24438 31.4892 9.65941 31.2736 10.05C31.18 10.2209 31.1962 10.4325 31.3142 10.583L31.7862 11.1852C31.9368 11.3765 31.9205 11.6532 31.7455 11.8281L30.7894 12.7843C30.6144 12.9593 30.3377 12.9756 30.1465 12.8209L29.5443 12.3489C29.3897 12.2269 29.1821 12.2147 29.0112 12.3083C28.6247 12.5239 28.2056 12.6989 27.7702 12.8209C27.5831 12.8738 27.4447 13.0366 27.4203 13.2278L27.3267 13.9846C27.2982 14.2288 27.0907 14.4119 26.8466 14.4119H25.4916C25.2475 14.4119 25.04 14.2288 25.0115 13.9846L24.9179 13.2278C24.8935 13.0325 24.7592 12.8738 24.568 12.8209C24.1326 12.6948 23.7176 12.5239 23.327 12.3083C23.1561 12.2147 22.9445 12.231 22.794 12.3489L22.1918 12.8209C21.9965 12.9715 21.7238 12.9552 21.5489 12.7843L20.5927 11.8281C20.4177 11.6532 20.4015 11.3805 20.552 11.1852L21.024 10.583C21.1461 10.4284 21.1583 10.2168 21.0647 10.05C20.849 9.66347 20.6741 9.24845 20.552 8.809C20.4991 8.62184 20.3404 8.48349 20.1451 8.45908L19.3883 8.36549C19.1442 8.33701 18.9611 8.1295 18.9611 7.88536V6.53042C18.9611 6.28629 19.1442 6.07877 19.3883 6.05029L20.1451 5.95671C20.3404 5.93229 20.4991 5.79395 20.552 5.60678C20.6741 5.17141 20.849 4.75638 21.0647 4.36577C21.1583 4.19487 21.142 3.98329 21.024 3.83274L20.552 3.23054C20.4015 3.03931 20.4177 2.76262 20.5927 2.58766L21.5489 1.63147C21.7238 1.4565 21.9965 1.44023 22.1918 1.59485L22.794 2.06684C22.9486 2.18891 23.1561 2.20111 23.327 2.10753C23.7135 1.89188 24.1326 1.71691 24.568 1.59485C24.7552 1.54195 24.8935 1.37919 24.9179 1.18796L25.0115 0.431141C25.04 0.187007 25.2475 0.00390625 25.4916 0.00390625H26.8466C27.0907 0.00390625 27.2982 0.187007 27.3267 0.431141L27.4569 1.51754L27.4651 1.51347Z" fill="white"/>
<path d="M26.1752 9.06126C27.1886 9.06126 28.0102 8.23967 28.0102 7.22619C28.0102 6.2127 27.1886 5.39111 26.1752 5.39111C25.1617 5.39111 24.3401 6.2127 24.3401 7.22619C24.3401 8.23967 25.1617 9.06126 26.1752 9.06126Z" fill="white"/>
<path d="M42.9025 46.1982C43.342 45.9825 43.8343 45.7425 44.3755 45.5472C44.5179 45.185 44.5708 44.7985 44.4446 44.4364C44.2046 43.7446 43.4356 43.35 42.7072 43.3215C41.9748 43.293 41.2668 43.5534 40.5833 43.8138C38.2355 44.7008 35.8511 45.5879 33.422 46.2226C33.6417 46.6987 33.7841 47.2236 33.8167 47.7891C33.8655 48.6802 33.6702 49.5754 33.2633 50.3647C36.5469 49.2987 39.7573 47.7322 42.9025 46.2023V46.1982Z" fill="#428FCB"/>
<path d="M48.5298 48.1839C48.1595 47.3579 47.1667 46.9592 46.2634 47.008C45.3601 47.0568 44.5178 47.4597 43.7041 47.8543C38.3128 50.4828 32.7465 53.1927 26.7571 53.5142C25.0604 53.6037 23.0503 53.327 22.2243 51.8378C23.7217 51.5286 25.2719 51.7198 26.8018 51.6913C28.3318 51.6628 29.9634 51.3617 31.0579 50.2916C32.1484 49.2174 32.3722 47.183 31.1678 46.239C30.3214 45.5758 29.1333 45.649 28.0591 45.7385C26.9727 45.828 25.8782 45.9013 24.7959 45.7548C23.6078 45.592 22.4725 45.1648 21.317 44.8311C17.3376 43.6796 13.1263 43.639 8.9882 43.8098C8.9882 43.228 8.9882 42.6502 8.9882 42.0684H0C0.0488268 43.1914 0.679506 44.6155 0.968398 45.6571C1.35087 47.0487 1.73335 48.4362 2.11583 49.8278C2.86044 52.5417 3.60911 55.2557 4.35372 57.9696H7.99946C8.31683 57.1233 8.63014 56.277 8.94751 55.4306C15.5432 58.9543 23.2334 61.0416 30.5412 59.4588C34.6548 58.5678 38.443 56.5658 42.0765 54.446C43.4518 53.6444 44.8149 52.8184 46.1779 51.9924C46.8819 51.5692 47.598 51.1298 48.1066 50.4828C48.6111 49.8359 48.8675 48.9285 48.5298 48.1798V48.1839Z" fill="#428FCB"/>
</g>
<defs>
<clipPath id="clip0_1_658">
<rect width="48.6844" height="60" fill="white"/>
</clipPath>
</defs>
</svg>
