<svg width="34" height="60" viewBox="0 0 34 60" fill="none" xmlns="http://www.w3.org/2000/svg">
<g clip-path="url(#clip0_1_644)">
<path d="M32.6163 30.5902L27.5831 25.1338C27.2657 28.6086 26.6798 32.0468 25.7765 35.3996L31.9043 33.357C33.0761 32.9664 33.4545 31.4975 32.6163 30.5861V30.5902Z" fill="#428FCB"/>
<path d="M0.451634 30.59C-0.386559 31.4974 -0.00815161 32.9703 1.16369 33.3609L7.29145 35.4035C6.38816 32.0508 5.80224 28.6125 5.48486 25.1377L0.451634 30.59Z" fill="#428FCB"/>
<path d="M22.7451 6.86423C22.3179 6.20507 17.8177 0.44351 16.536 0C15.2543 0.44351 10.7541 6.20507 10.3269 6.86423C8.27613 10.0258 7.6007 12.6543 7.38911 16.4017C6.95374 24.0228 8.05641 31.7374 10.6361 38.9231C10.7622 39.2771 10.9087 39.6474 11.2098 39.8752C11.5475 40.1275 12.0073 40.1397 12.4305 40.1397C13.8017 40.1397 15.1729 40.1397 16.5401 40.1356C17.9113 40.1356 19.2825 40.1356 20.6497 40.1397C21.0728 40.1397 21.5285 40.1316 21.8703 39.8752C22.1714 39.6514 22.3138 39.2771 22.444 38.9231C25.0237 31.7334 26.1264 24.0228 25.691 16.4017C25.4754 12.6543 24.804 10.0258 22.7533 6.86423H22.7451ZM16.5319 21.8012C13.8546 21.8012 11.6859 19.6324 11.6859 16.9551C11.6859 14.2778 13.8546 12.109 16.5319 12.109C19.2093 12.109 21.378 14.2778 21.378 16.9551C21.378 19.6324 19.2093 21.8012 16.5319 21.8012Z" fill="#428FCB"/>
<path fill-rule="evenodd" clip-rule="evenodd" d="M16.1495 59.7232L14.2412 53.8558C14.1883 53.689 14.0337 53.5792 13.8587 53.5792H7.69024C7.29963 53.5792 7.14094 53.0828 7.45425 52.8508L12.4427 49.2254C12.5851 49.1237 12.6421 48.9406 12.5892 48.7779L10.6809 42.9105C10.5629 42.5402 10.9861 42.231 11.2994 42.4629L16.2919 46.0883C16.4343 46.19 16.6215 46.19 16.7639 46.0883L21.7524 42.4629C22.0657 42.2351 22.4888 42.5402 22.3708 42.9105L20.4625 48.7779C20.4096 48.9447 20.4666 49.1237 20.609 49.2254L25.5975 52.8508C25.9108 53.0787 25.7521 53.5792 25.3615 53.5792H19.193C19.0181 53.5792 18.8634 53.6931 18.8105 53.8558L16.9022 59.7232C16.7842 60.0935 16.2593 60.0935 16.1373 59.7232H16.1495Z" fill="white"/>
</g>
<defs>
<clipPath id="clip0_1_644">
<rect width="33.0679" height="60" fill="white"/>
</clipPath>
</defs>
</svg>
