<svg width="48" height="60" viewBox="0 0 48 60" fill="none" xmlns="http://www.w3.org/2000/svg">
<g clip-path="url(#clip0_1_603)">
<path fill-rule="evenodd" clip-rule="evenodd" d="M5.50524 33.959L13.1019 27.1477L13.228 27.2209C18.9082 30.411 26.0695 29.4426 30.647 24.865C36.3272 19.1849 36.3272 9.94032 30.647 4.26014C24.9668 -1.42005 15.7222 -1.42005 10.0421 4.26014C5.46455 8.83765 4.49615 15.9989 7.68617 21.6791L7.75941 21.8052L0.948069 29.4019C-0.31329 30.6632 -0.317359 32.7017 0.931793 33.9753C2.20129 35.2245 4.23981 35.2204 5.50117 33.959H5.50524ZM13.1995 21.7035C9.28118 17.7852 9.28118 11.4336 13.1995 7.51526C17.1179 3.59691 23.4694 3.59691 27.3878 7.51526C31.3061 11.4336 31.3061 17.7852 27.3878 21.7035C23.4694 25.6219 17.1179 25.6219 13.1995 21.7035Z" fill="white"/>
<path d="M13.5413 43.3623H6.9375C5.65579 43.3623 4.61823 44.3999 4.61823 45.6816V57.6808C4.61823 58.9625 5.65579 60 6.9375 60H13.5413C14.823 60 15.8606 58.9625 15.8606 57.6808V45.6816C15.8606 44.3999 14.823 43.3623 13.5413 43.3623Z" fill="#428FCB"/>
<path d="M45.3195 21.4961H38.7156C37.4339 21.4961 36.3964 22.5337 36.3964 23.8154V57.6808C36.3964 58.9625 37.4339 60.0001 38.7156 60.0001H45.3195C46.6012 60.0001 47.6387 58.9625 47.6387 57.6808V23.8154C47.6387 22.5337 46.6012 21.4961 45.3195 21.4961Z" fill="#428FCB"/>
<path d="M29.4304 32.6816H22.8265C21.5448 32.6816 20.5073 33.7192 20.5073 35.0009V57.681C20.5073 58.9627 21.5448 60.0002 22.8265 60.0002H29.4304C30.7121 60.0002 31.7496 58.9627 31.7496 57.681V35.0009C31.7496 33.7192 30.7121 32.6816 29.4304 32.6816ZM29.7111 53.311H22.5417V50.0518H29.7111V53.311ZM29.7111 47.5575H22.5417V44.2984H29.7111V47.5575ZM29.7111 41.8082H22.5417V38.549H29.7111V41.8082Z" fill="white"/>
</g>
<defs>
<clipPath id="clip0_1_603">
<rect width="47.6387" height="60" fill="white"/>
</clipPath>
</defs>
</svg>
