<svg width="40" height="60" viewBox="0 0 40 60" fill="none" xmlns="http://www.w3.org/2000/svg">
<g clip-path="url(#clip0_1_617)">
<path fill-rule="evenodd" clip-rule="evenodd" d="M11.9707 17.9317C11.9707 17.9317 13.7041 24.1083 19.6162 24.2589C25.5283 24.1083 27.2616 17.9317 27.2616 17.9317C31.1759 14.7702 28.3155 11.0024 28.3155 11.0024V4.82578C24.8528 -0.44344 19.6162 0.00820757 19.6162 0.00820757C19.6162 0.00820757 14.3795 -0.44344 10.9169 4.82985V11.0064C10.9169 11.0064 8.05643 14.7742 11.9707 17.9358V17.9317Z" fill="#428FCB"/>
<path d="M22.0819 40.7176C20.4991 41.0512 19.3557 41.979 19.0018 43.1793C18.7454 43.9483 18.4728 44.9248 18.2571 46.0397H4.65888L1.13928 48.7008V51.3618L4.65888 54.0229H6.41665L8.17441 52.6924L9.93624 54.0229H11.694L13.4558 52.6924L15.2177 54.0229H18.2449C18.4525 55.1378 18.7007 56.1102 18.9163 56.8833C19.2662 58.0796 20.4991 59.0114 21.9965 59.345C23.4938 59.6787 25.6056 60.0082 27.8923 60.0082C30.179 60.0082 32.3803 59.6746 33.8777 59.345C35.4605 59.0114 36.6038 58.0145 37.0473 56.8833C37.4868 55.2883 38.1012 52.8266 38.1012 50.0354C38.1012 47.2441 37.4868 44.7824 37.0473 43.1874C36.6079 42.0563 35.4645 41.0594 33.8777 40.7257C32.3803 40.3921 30.2685 40.0625 27.9818 40.0625C25.6951 40.0625 23.5833 40.3961 22.086 40.7298L22.0819 40.7176ZM32.8157 45.3724C33.3446 45.3724 33.6945 47.4353 33.6945 50.0272C33.6945 52.6191 33.3406 54.6821 32.8157 54.6821H31.0538C30.0854 54.6821 29.292 54.0839 29.292 53.3515V46.7029C29.292 45.9705 30.0854 45.3724 31.0538 45.3724H32.8157Z" fill="white"/>
<path fill-rule="evenodd" clip-rule="evenodd" d="M27.9777 37.3687C30.6225 37.3687 32.9621 37.7674 34.4554 38.097C36.4085 38.508 38.0401 39.631 39.0085 41.1731C38.6261 37.0228 37.8855 32.6813 36.5835 30.48C34.9966 27.7986 30.5615 27.4813 27.3796 26.4478C26.4275 29.6256 24.8691 34.435 23.1439 37.7756C24.4988 37.5518 26.163 37.3605 27.9777 37.3605V37.3687Z" fill="#428FCB"/>
<path fill-rule="evenodd" clip-rule="evenodd" d="M0.931765 45.49L3.75965 43.3539H16.1413C16.239 43.0121 16.3448 42.6703 16.4546 42.3366C17.065 40.2493 18.9692 38.638 21.5163 38.0969C21.7564 38.044 22.0209 37.9911 22.3016 37.9341L20.7514 30.8339L21.1908 29.3813L19.6202 28.5105L18.0496 29.3813L18.4891 30.8339L16.7232 38.9269C14.7497 35.6352 12.9269 30.0119 11.8568 26.4517C8.67488 27.4852 4.23571 27.7985 2.65291 30.4839C1.01721 33.2345 0.268535 39.3338 -1.28617e-05 44.2165C-0.0203574 44.5949 0.130192 44.9285 0.443497 45.2052C0.589978 45.3314 0.752734 45.4209 0.931765 45.49Z" fill="#428FCB"/>
</g>
<defs>
<clipPath id="clip0_1_617">
<rect width="39.0085" height="60" fill="white"/>
</clipPath>
</defs>
</svg>
