<svg width="52" height="60" viewBox="0 0 52 60" fill="none" xmlns="http://www.w3.org/2000/svg">
<g clip-path="url(#clip0_1_630)">
<path d="M51.0159 51.8092L43.5657 36.7827L41.7062 37.8569L39.5578 41.5799C38.7929 42.9064 37.3647 43.7324 35.8307 43.7324H31.534L30.1587 44.5258L37.1653 58.6571C37.4868 59.3041 38.0361 59.829 38.6098 59.9632C39.2486 60.1138 39.8183 59.7801 40.0217 59.1332L42.3735 51.7685L49.6609 54.3522C50.3852 54.6086 51.0525 54.2708 51.2641 53.4855C51.3983 52.981 51.2926 52.3585 51.0199 51.8051L51.0159 51.8092Z" fill="white"/>
<path d="M19.787 43.7285H15.4903C13.9563 43.7285 12.5281 42.9025 11.7632 41.576L9.61479 37.853L7.7553 36.7788L0.301076 51.8093C0.0284599 52.3627 -0.0773315 52.9812 0.0569422 53.4898C0.264456 54.2792 0.935825 54.6128 1.66009 54.3565L8.94749 51.7727L11.2993 59.1374C11.5068 59.7844 12.0724 60.118 12.7112 59.9675C13.2849 59.8332 13.8342 59.3042 14.1557 58.6614L21.1623 44.5301L19.787 43.7326V43.7285Z" fill="white"/>
<path d="M47.2725 21.0769L44.7457 16.6988V11.6411C44.7457 11.1162 44.4649 10.632 44.0133 10.3716L39.6351 7.84484L37.1043 3.46263C36.8439 3.01099 36.3597 2.73023 35.8348 2.73023H30.7771L26.3949 0.195307C26.1671 0.0651024 25.9148 0 25.6625 0C25.4103 0 25.1539 0.0651024 24.9301 0.195307L20.552 2.72209H15.4944C14.9695 2.72209 14.4853 3.00285 14.2249 3.4545L11.694 7.8367L7.31586 10.3635C6.86422 10.6239 6.58346 11.1081 6.58346 11.633V16.6906L4.05261 21.0688C3.7922 21.5204 3.7922 22.0819 4.05261 22.5376L6.58346 26.9198V31.9775C6.58346 32.5024 6.86422 32.9866 7.31586 33.247L11.694 35.7738L14.2249 40.156C14.4853 40.6076 14.9695 40.8884 15.4944 40.8884H20.552L24.9301 43.4152C25.1539 43.5454 25.4103 43.6105 25.6625 43.6105C25.9148 43.6105 26.1711 43.5454 26.3949 43.4152L30.7731 40.8884H35.8307C36.3556 40.8884 36.8398 40.6076 37.1002 40.156L39.6311 35.7738L44.0092 33.247C44.4609 32.9866 44.7416 32.5024 44.7416 31.9775V26.9198L47.2725 22.5376C47.5369 22.0819 47.5369 21.5245 47.2725 21.0688V21.0769ZM25.6585 35.7778C17.9438 35.7778 11.6899 29.5239 11.6899 21.8093C11.6899 14.0947 17.9438 7.84077 25.6585 7.84077C33.3731 7.84077 39.627 14.0947 39.627 21.8093C39.627 29.5239 33.3731 35.7778 25.6585 35.7778Z" fill="#428FCB"/>
<path d="M25.6625 11.1201C19.7707 11.1201 14.9735 15.9173 14.9735 21.8091C14.9735 27.7009 19.7707 32.4859 25.6625 32.4859C31.5543 32.4859 36.3393 27.7009 36.3393 21.8091C36.3393 15.9173 31.5543 11.1201 25.6625 11.1201ZM32.6122 19.5549L28.7467 22.3625C28.6491 22.4357 28.6084 22.5619 28.645 22.6758L30.122 27.2208C30.2075 27.4812 29.9104 27.6927 29.6907 27.5341L25.8253 24.7265C25.7276 24.6533 25.5933 24.6533 25.4957 24.7265L21.6302 27.5341C21.4105 27.6927 21.1135 27.4771 21.1989 27.2208L22.6759 22.6758C22.7126 22.5619 22.6759 22.4317 22.5742 22.3625L18.7088 19.5549C18.489 19.3963 18.603 19.0463 18.8756 19.0463H23.6565C23.7786 19.0463 23.8844 18.969 23.9251 18.851L25.4021 14.3061C25.4875 14.0457 25.8497 14.0457 25.9351 14.3061L27.4121 18.851C27.4488 18.965 27.5586 19.0463 27.6807 19.0463H32.4616C32.7343 19.0463 32.8482 19.3963 32.6285 19.5549H32.6122Z" fill="white"/>
</g>
<defs>
<clipPath id="clip0_1_630">
<rect width="51.317" height="60" fill="white"/>
</clipPath>
</defs>
</svg>
